<svg width="24" height="24" viewBox="0 0 24 24" fill="none" xmlns="http://www.w3.org/2000/svg">
<path d="M15 9.5H21L23 15.5V20H20.45" stroke="#363636" stroke-width="1.67" stroke-linecap="round" stroke-linejoin="round"/>
<path d="M15.55 20H8.98853" stroke="#363636" stroke-width="1.67" stroke-linecap="round" stroke-linejoin="round"/>
<path d="M11 6H15V16" stroke="#363636" stroke-width="1.67" stroke-linecap="round" stroke-linejoin="round"/>
<path d="M3.5 20H1V12" stroke="#363636" stroke-width="1.67" stroke-linecap="round" stroke-linejoin="round"/>
<path d="M6.25 23C7.76878 23 9 21.7688 9 20.25C9 18.7312 7.76878 17.5 6.25 17.5C4.73122 17.5 3.5 18.7312 3.5 20.25C3.5 21.7688 4.73122 23 6.25 23Z" stroke="#363636" stroke-width="1.67" stroke-linecap="round" stroke-linejoin="round"/>
<path d="M18 23C19.3807 23 20.5 21.8807 20.5 20.5C20.5 19.1193 19.3807 18 18 18C16.6193 18 15.5 19.1193 15.5 20.5C15.5 21.8807 16.6193 23 18 23Z" stroke="#363636" stroke-width="1.67" stroke-linecap="round" stroke-linejoin="round"/>
<path d="M6 11C8.76142 11 11 8.76142 11 6C11 3.23858 8.76142 1 6 1C3.23858 1 1 3.23858 1 6C1 8.76142 3.23858 11 6 11Z" stroke="#363636" stroke-width="1.67" stroke-linecap="round" stroke-linejoin="round"/>
<path d="M6 4V6H8" stroke="#363636" stroke-width="1.67" stroke-linecap="round" stroke-linejoin="round"/>
</svg>
