<svg width="14" height="14" viewBox="0 0 14 14" fill="none" xmlns="http://www.w3.org/2000/svg">
	<path d="M7.9987 4.6665H6.4987C5.85436 4.6665 5.33203 5.18884 5.33203 5.83317C5.33203 6.4775 5.85436 6.99984 6.4987 6.99984H6.9987H7.4987C8.14303 6.99984 8.66536 7.52217 8.66536 8.1665C8.66536 8.81084 8.14303 9.33317 7.4987 9.33317H5.9987" stroke="#606060" stroke-width="1.25" stroke-linecap="round" stroke-linejoin="round"/>
	<path d="M7 9.33301V9.99967" stroke="#606060" stroke-width="1.25" stroke-linecap="round" stroke-linejoin="round"/>
	<path d="M7 4.66667V4" stroke="#606060" stroke-width="1.25" stroke-linecap="round" stroke-linejoin="round"/>
	<path d="M1.33203 1.33301V3.99967H3.9987" stroke="#606060" stroke-width="1.25" stroke-linecap="round" stroke-linejoin="round"/>
	<path d="M0.666016 6.99984C0.666016 10.4976 3.50154 13.3332 6.99935 13.3332C10.4971 13.3332 13.3327 10.4976 13.3327 6.99984C13.3327 3.50203 10.4971 0.666504 6.99935 0.666504C4.58696 0.666504 2.4896 2.01526 1.42022 3.99984L1.48998 3.87384" stroke="#606060" stroke-width="1.25" stroke-linecap="round" stroke-linejoin="round"/>
</svg>