<svg width="16" height="16" viewBox="0 0 16 16" fill="none" xmlns="http://www.w3.org/2000/svg">
	<path d="M1.33398 14.6665H8.66732C11.981 14.6665 14.6673 11.9802 14.6673 8.6665C14.6673 5.3528 11.981 2.6665 8.66732 2.6665C5.57895 2.6665 2.99894 4.99987 2.66732 7.99984" stroke="#606060" stroke-width="1.25" stroke-linecap="round"/>
	<path d="M12.3327 3.66667L12.9993 3M3.66602 3L4.33268 3.66667" stroke="#606060" stroke-width="1.25" stroke-linecap="round" stroke-linejoin="round"/>
	<path d="M11.0007 6L9.04112 7.95958M9.04112 7.95958C8.86012 7.77858 8.61012 7.66665 8.33398 7.66665C7.78172 7.66665 7.33398 8.11438 7.33398 8.66665C7.33398 9.21898 7.78172 9.66665 8.33398 9.66665C8.88625 9.66665 9.33398 9.21898 9.33398 8.66665C9.33398 8.39051 9.22205 8.14051 9.04112 7.95958Z" stroke="#606060" stroke-width="1.25" stroke-linecap="round"/>
	<path d="M8.33398 2.3335V1.3335" stroke="#606060" stroke-width="1.25" stroke-linecap="round" stroke-linejoin="round"/>
	<path d="M7 1.3335H9.66667" stroke="#606060" stroke-width="1.25" stroke-linecap="round" stroke-linejoin="round"/>
	<path d="M1.33398 10H3.33398" stroke="#606060" stroke-width="1.25" stroke-linecap="round" stroke-linejoin="round"/>
	<path d="M1.33398 12.6665H4.66732" stroke="#606060" stroke-width="1.25" stroke-linecap="round" stroke-linejoin="round"/>
</svg>