<svg width="104" height="16" viewBox="0 0 104 16" fill="none" xmlns="http://www.w3.org/2000/svg">
<g clip-path="url(#clip0_3_676)">
<path d="M15.1441 5.43893L10.8271 4.81093L8.90008 0.899935C8.80851 0.7424 8.67719 0.61166 8.51925 0.520784C8.36132 0.429908 8.18229 0.38208 8.00008 0.38208C7.81786 0.38208 7.63884 0.429908 7.4809 0.520784C7.32297 0.61166 7.19165 0.7424 7.10008 0.899935L5.17308 4.81193L0.856079 5.43893C0.671214 5.46545 0.497468 5.5432 0.354521 5.66338C0.211573 5.78356 0.105137 5.94137 0.0472671 6.11894C-0.0106025 6.2965 -0.0175924 6.48672 0.0270889 6.66806C0.0717703 6.84939 0.166337 7.01459 0.300079 7.14493L3.42308 10.1899L2.68608 14.4899C2.65457 14.6738 2.67514 14.8629 2.74546 15.0357C2.81578 15.2085 2.93305 15.3582 3.08401 15.4679C3.23497 15.5775 3.41359 15.6428 3.59969 15.6562C3.78579 15.6697 3.97193 15.6308 4.13708 15.5439L8.00008 13.5129L11.8611 15.5419C12.0262 15.6288 12.2124 15.6677 12.3985 15.6542C12.5846 15.6408 12.7632 15.5755 12.9142 15.4659C13.0651 15.3562 13.1824 15.2065 13.2527 15.0337C13.323 14.8609 13.3436 14.6718 13.3121 14.4879L12.5751 10.1879L15.7001 7.14493C15.8335 7.01468 15.9278 6.84971 15.9724 6.66868C16.017 6.48764 16.0102 6.29773 15.9525 6.1204C15.8949 5.94307 15.7889 5.78539 15.6464 5.66514C15.5039 5.5449 15.3306 5.4669 15.1461 5.43993L15.1441 5.43893Z" fill="#FFC439"/>
</g>
<g clip-path="url(#clip1_3_676)">
<path d="M37.1441 5.43893L32.8271 4.81093L30.9001 0.899935C30.8085 0.7424 30.6772 0.61166 30.5193 0.520784C30.3613 0.429908 30.1823 0.38208 30.0001 0.38208C29.8179 0.38208 29.6388 0.429908 29.4809 0.520784C29.323 0.61166 29.1916 0.7424 29.1001 0.899935L27.1731 4.81193L22.8561 5.43893C22.6712 5.46545 22.4975 5.5432 22.3545 5.66338C22.2116 5.78356 22.1051 5.94137 22.0473 6.11894C21.9894 6.2965 21.9824 6.48672 22.0271 6.66806C22.0718 6.84939 22.1663 7.01459 22.3001 7.14493L25.4231 10.1899L24.6861 14.4899C24.6546 14.6738 24.6751 14.8629 24.7455 15.0357C24.8158 15.2085 24.933 15.3582 25.084 15.4679C25.235 15.5775 25.4136 15.6428 25.5997 15.6562C25.7858 15.6697 25.9719 15.6308 26.1371 15.5439L30.0001 13.5129L33.8611 15.5419C34.0262 15.6288 34.2124 15.6677 34.3985 15.6542C34.5846 15.6408 34.7632 15.5755 34.9142 15.4659C35.0651 15.3562 35.1824 15.2065 35.2527 15.0337C35.323 14.8609 35.3436 14.6718 35.3121 14.4879L34.5751 10.1879L37.7001 7.14493C37.8335 7.01468 37.9278 6.84971 37.9724 6.66868C38.017 6.48764 38.0102 6.29773 37.9525 6.1204C37.8949 5.94307 37.7889 5.78539 37.6464 5.66514C37.5039 5.5449 37.3306 5.4669 37.1461 5.43993L37.1441 5.43893Z" fill="#FFC439"/>
</g>
<g clip-path="url(#clip2_3_676)">
<path d="M59.1441 5.43893L54.8271 4.81093L52.9001 0.899935C52.8085 0.7424 52.6772 0.61166 52.5193 0.520784C52.3613 0.429908 52.1823 0.38208 52.0001 0.38208C51.8179 0.38208 51.6388 0.429908 51.4809 0.520784C51.323 0.61166 51.1916 0.7424 51.1001 0.899935L49.1731 4.81193L44.8561 5.43893C44.6712 5.46545 44.4975 5.5432 44.3545 5.66338C44.2116 5.78356 44.1051 5.94137 44.0473 6.11894C43.9894 6.2965 43.9824 6.48672 44.0271 6.66806C44.0718 6.84939 44.1663 7.01459 44.3001 7.14493L47.4231 10.1899L46.6861 14.4899C46.6546 14.6738 46.6751 14.8629 46.7455 15.0357C46.8158 15.2085 46.933 15.3582 47.084 15.4679C47.235 15.5775 47.4136 15.6428 47.5997 15.6562C47.7858 15.6697 47.9719 15.6308 48.1371 15.5439L52.0001 13.5129L55.8611 15.5419C56.0262 15.6288 56.2124 15.6677 56.3985 15.6542C56.5846 15.6408 56.7632 15.5755 56.9142 15.4659C57.0651 15.3562 57.1824 15.2065 57.2527 15.0337C57.323 14.8609 57.3436 14.6718 57.3121 14.4879L56.5751 10.1879L59.7001 7.14493C59.8335 7.01468 59.9278 6.84971 59.9724 6.66868C60.017 6.48764 60.0102 6.29773 59.9525 6.1204C59.8949 5.94307 59.7889 5.78539 59.6464 5.66514C59.5039 5.5449 59.3306 5.4669 59.1461 5.43993L59.1441 5.43893Z" fill="#FFC439"/>
</g>
<g clip-path="url(#clip3_3_676)">
<path d="M81.1441 5.43893L76.8271 4.81093L74.9001 0.899935C74.8085 0.7424 74.6772 0.61166 74.5193 0.520784C74.3613 0.429908 74.1823 0.38208 74.0001 0.38208C73.8179 0.38208 73.6388 0.429908 73.4809 0.520784C73.323 0.61166 73.1916 0.7424 73.1001 0.899935L71.1731 4.81193L66.8561 5.43893C66.6712 5.46545 66.4975 5.5432 66.3545 5.66338C66.2116 5.78356 66.1051 5.94137 66.0473 6.11894C65.9894 6.2965 65.9824 6.48672 66.0271 6.66806C66.0718 6.84939 66.1663 7.01459 66.3001 7.14493L69.4231 10.1899L68.6861 14.4899C68.6546 14.6738 68.6751 14.8629 68.7455 15.0357C68.8158 15.2085 68.933 15.3582 69.084 15.4679C69.235 15.5775 69.4136 15.6428 69.5997 15.6562C69.7858 15.6697 69.9719 15.6308 70.1371 15.5439L74.0001 13.5129L77.8611 15.5419C78.0262 15.6288 78.2124 15.6677 78.3985 15.6542C78.5846 15.6408 78.7632 15.5755 78.9142 15.4659C79.0651 15.3562 79.1824 15.2065 79.2527 15.0337C79.323 14.8609 79.3436 14.6718 79.3121 14.4879L78.5751 10.1879L81.7001 7.14493C81.8335 7.01468 81.9278 6.84971 81.9724 6.66868C82.017 6.48764 82.0102 6.29773 81.9525 6.1204C81.8949 5.94307 81.7889 5.78539 81.6464 5.66514C81.5039 5.5449 81.3306 5.4669 81.1461 5.43993L81.1441 5.43893Z" fill="#FFC439"/>
</g>
<g clip-path="url(#clip4_3_676)">
<path d="M103.144 5.43893L98.8271 4.81093L96.9001 0.899935C96.8085 0.7424 96.6772 0.61166 96.5193 0.520784C96.3613 0.429908 96.1823 0.38208 96.0001 0.38208C95.8179 0.38208 95.6388 0.429908 95.4809 0.520784C95.323 0.61166 95.1916 0.7424 95.1001 0.899935L93.1731 4.81193L88.8561 5.43893C88.6712 5.46545 88.4975 5.5432 88.3545 5.66338C88.2116 5.78356 88.1051 5.94137 88.0473 6.11894C87.9894 6.2965 87.9824 6.48672 88.0271 6.66806C88.0718 6.84939 88.1663 7.01459 88.3001 7.14493L91.4231 10.1899L90.6861 14.4899C90.6546 14.6738 90.6751 14.8629 90.7455 15.0357C90.8158 15.2085 90.933 15.3582 91.084 15.4679C91.235 15.5775 91.4136 15.6428 91.5997 15.6562C91.7858 15.6697 91.9719 15.6308 92.1371 15.5439L96.0001 13.5129L99.8611 15.5419C100.026 15.6288 100.212 15.6677 100.398 15.6542C100.585 15.6408 100.763 15.5755 100.914 15.4659C101.065 15.3562 101.182 15.2065 101.253 15.0337C101.323 14.8609 101.344 14.6718 101.312 14.4879L100.575 10.1879L103.7 7.14493C103.833 7.01468 103.928 6.84971 103.972 6.66868C104.017 6.48764 104.01 6.29773 103.953 6.1204C103.895 5.94307 103.789 5.78539 103.646 5.66514C103.504 5.5449 103.331 5.4669 103.146 5.43993L103.144 5.43893Z" fill="#FFC439"/>
</g>
<defs>
<clipPath id="clip0_3_676">
<rect width="16" height="16" fill="white"/>
</clipPath>
<clipPath id="clip1_3_676">
<rect width="16" height="16" fill="white" transform="translate(22)"/>
</clipPath>
<clipPath id="clip2_3_676">
<rect width="16" height="16" fill="white" transform="translate(44)"/>
</clipPath>
<clipPath id="clip3_3_676">
<rect width="16" height="16" fill="white" transform="translate(66)"/>
</clipPath>
<clipPath id="clip4_3_676">
<rect width="16" height="16" fill="white" transform="translate(88)"/>
</clipPath>
</defs>
</svg>
