<svg width="16" height="16" viewBox="0 0 16 16" fill="none" xmlns="http://www.w3.org/2000/svg">
<g id="Quote">
<g id="Group">
<path id="Vector" d="M6 8.00007H2C2.017 5.34407 2.918 3.68307 4.755 2.92407C5.266 2.71307 5.508 2.12807 5.297 1.61807C5.086 1.10607 4.501 0.868073 3.991 1.07607C2.171 1.82807 0 3.65207 0 8.07207V14.0001C0 14.5521 0.447 15.0001 1 15.0001H6C6.553 15.0001 7 14.5521 7 14.0001V9.00007C7 8.44807 6.553 8.00007 6 8.00007Z" fill="#16110E"/>
<path id="Vector_2" d="M15 8.00007H11C11.017 5.34407 11.918 3.68307 13.755 2.92407C14.266 2.71307 14.508 2.12807 14.297 1.61807C14.086 1.10607 13.501 0.868073 12.991 1.07607C11.171 1.82807 9 3.65307 9 8.07207V14.0001C9 14.5521 9.447 15.0001 10 15.0001H15C15.553 15.0001 16 14.5521 16 14.0001V9.00007C16 8.44807 15.553 8.00007 15 8.00007Z" fill="#16110E"/>
</g>
</g>
</svg>
