<svg width="24" height="24" viewBox="0 0 24 24" fill="none" xmlns="http://www.w3.org/2000/svg">
<g clip-path="url(#clip0_3_1150)">
<path d="M12 6.76709L13.545 9.89809L17 10.4001L14.5 12.8371L15.09 16.2781L12 14.6531L8.91 16.2781L9.5 12.8371L7 10.4001L10.455 9.89809L12 6.76709Z" stroke="#0C7439" stroke-width="2" stroke-linecap="round" stroke-linejoin="round"/>
<path d="M12 23C18.0751 23 23 18.0751 23 12C23 5.92487 18.0751 1 12 1C5.92487 1 1 5.92487 1 12C1 18.0751 5.92487 23 12 23Z" stroke="#0C7439" stroke-width="2" stroke-linecap="round" stroke-linejoin="round"/>
<path d="M12 20C12.5523 20 13 19.5523 13 19C13 18.4477 12.5523 18 12 18C11.4477 18 11 18.4477 11 19C11 19.5523 11.4477 20 12 20Z" fill="#0C7439"/>
<path d="M18.6572 15.1631C19.2095 15.1631 19.6572 14.7154 19.6572 14.1631C19.6572 13.6108 19.2095 13.1631 18.6572 13.1631C18.1049 13.1631 17.6572 13.6108 17.6572 14.1631C17.6572 14.7154 18.1049 15.1631 18.6572 15.1631Z" fill="#0C7439"/>
<path d="M16.1143 7.33691C16.6665 7.33691 17.1143 6.8892 17.1143 6.33691C17.1143 5.78463 16.6665 5.33691 16.1143 5.33691C15.562 5.33691 15.1143 5.78463 15.1143 6.33691C15.1143 6.8892 15.562 7.33691 16.1143 7.33691Z" fill="#0C7439"/>
<path d="M7.88574 7.33691C8.43803 7.33691 8.88574 6.8892 8.88574 6.33691C8.88574 5.78463 8.43803 5.33691 7.88574 5.33691C7.33346 5.33691 6.88574 5.78463 6.88574 6.33691C6.88574 6.8892 7.33346 7.33691 7.88574 7.33691Z" fill="#0C7439"/>
<path d="M5.34277 15.1631C5.89506 15.1631 6.34277 14.7154 6.34277 14.1631C6.34277 13.6108 5.89506 13.1631 5.34277 13.1631C4.79049 13.1631 4.34277 13.6108 4.34277 14.1631C4.34277 14.7154 4.79049 15.1631 5.34277 15.1631Z" fill="#0C7439"/>
</g>
<defs>
<clipPath id="clip0_3_1150">
<rect width="24" height="24" rx="12" fill="white"/>
</clipPath>
</defs>
</svg>
