<svg width="36" height="36" viewBox="0 0 36 36" fill="none" xmlns="http://www.w3.org/2000/svg">
<path d="M12 29H7V18H12" stroke="#298FC2" stroke-width="2" stroke-linecap="round" stroke-linejoin="round"/>
<path d="M12 18L15 7C15.7956 7 16.5587 7.31607 17.1213 7.87868C17.6839 8.44129 18 9.20435 18 10V16H25.5C25.9325 16 26.3599 16.0936 26.7529 16.2742C27.1459 16.4549 27.4951 16.7183 27.7767 17.0466C28.0584 17.3749 28.2657 17.7601 28.3845 18.176C28.5033 18.5919 28.5307 19.0285 28.465 19.456L27.388 26.456C27.2792 27.1638 26.9207 27.8093 26.3775 28.2758C25.8343 28.7424 25.1421 28.9993 24.426 29H12V18Z" stroke="#298FC2" stroke-width="2" stroke-linecap="round" stroke-linejoin="round"/>
</svg>
