<svg width="166" height="106" viewBox="0 0 166 106" fill="none" xmlns="http://www.w3.org/2000/svg">
<g filter="url(#filter0_d_295_3855)">
<rect x="3" y="3" width="160" height="100" rx="3" fill="white"/>
<rect x="19" y="28" width="52" height="3" rx="1.5" fill="#D1D2D3"/>
<rect x="19" y="36" width="16" height="2" rx="1" fill="#D1D2D3"/>
<rect x="19" y="46" width="24" height="2" rx="1" fill="#D1D2D3"/>
<rect x="19" y="52" width="24" height="2" rx="1" fill="#D1D2D3"/>
<rect x="19" y="67" width="16" height="10" rx="2" fill="#D1D2D3"/>
<rect x="55" y="67" width="24" height="10" rx="2" fill="#D1D2D3"/>
<rect x="91" y="18" width="1" height="70" fill="#D1D2D3"/>
<rect x="124" y="35" width="16" height="2" rx="1" fill="#D1D2D3"/>
<rect x="124" y="41" width="23" height="2" rx="1" fill="#D1D2D3"/>
<rect x="104" y="55" width="43" height="1" rx="0.5" fill="#D1D2D3"/>
<rect x="104" y="27" width="43" height="1" rx="0.5" fill="#D1D2D3"/>
<path d="M117.6 34H106.4C105.627 34 105 34.6268 105 35.4V46.6C105 47.3732 105.627 48 106.4 48H117.6C118.373 48 119 47.3732 119 46.6V35.4C119 34.6268 118.373 34 117.6 34Z" stroke="#D1D2D3" stroke-width="2" stroke-linecap="round" stroke-linejoin="round"/>
<path d="M116.962 44.457L114.462 39.2065C114.435 39.1496 114.395 39.1009 114.345 39.0649C114.295 39.029 114.237 39.007 114.176 39.001C114.116 38.9964 114.055 39.0078 114 39.0339C113.944 39.0601 113.896 39.1003 113.859 39.151L110.915 43.2718L109.417 41.3847C109.381 41.3392 109.335 41.3033 109.283 41.28C109.231 41.2567 109.175 41.2466 109.119 41.2506C109.062 41.2547 109.008 41.2726 108.959 41.3031C108.911 41.3336 108.87 41.3757 108.84 41.4259L107.054 44.4262C107.02 44.483 107.002 44.5482 107 44.6151C106.998 44.682 107.014 44.7482 107.045 44.8068C107.076 44.8653 107.121 44.9141 107.176 44.9481C107.231 44.9821 107.293 45 107.357 45H116.643C116.704 45 116.764 44.9836 116.817 44.9525C116.87 44.9213 116.915 44.8764 116.947 44.822C116.979 44.7676 116.997 44.7055 117 44.6416C117.002 44.5777 116.989 44.5141 116.962 44.457Z" fill="#D1D2D3"/>
<path d="M110 39.6364C110.552 39.6364 111 39.1887 111 38.6364C111 38.0841 110.552 37.6364 110 37.6364C109.448 37.6364 109 38.0841 109 38.6364C109 39.1887 109.448 39.6364 110 39.6364Z" fill="#D1D2D3"/>
<rect x="104" y="72" width="43" height="1" rx="0.5" fill="#D1D2D3"/>
<rect x="104" y="79" width="16" height="3" rx="1.5" fill="#D1D2D3"/>
<rect x="104" y="21" width="8" height="3" rx="1.5" fill="#D1D2D3"/>
<rect x="139" y="79" width="8" height="3" rx="1.5" fill="#D1D2D3"/>
<rect x="104" y="61" width="43" height="6" rx="2" fill="#D1D2D3"/>
<rect x="19" y="20" width="37" height="3" rx="1.5" fill="#16110E"/>
</g>
<defs>
<filter id="filter0_d_295_3855" x="0" y="0" width="166" height="106" filterUnits="userSpaceOnUse" color-interpolation-filters="sRGB">
<feFlood flood-opacity="0" result="BackgroundImageFix"/>
<feColorMatrix in="SourceAlpha" type="matrix" values="0 0 0 0 0 0 0 0 0 0 0 0 0 0 0 0 0 0 127 0" result="hardAlpha"/>
<feOffset/>
<feGaussianBlur stdDeviation="1.5"/>
<feComposite in2="hardAlpha" operator="out"/>
<feColorMatrix type="matrix" values="0 0 0 0 0 0 0 0 0 0 0 0 0 0 0 0 0 0 0.25 0"/>
<feBlend mode="normal" in2="BackgroundImageFix" result="effect1_dropShadow_295_3855"/>
<feBlend mode="normal" in="SourceGraphic" in2="effect1_dropShadow_295_3855" result="shape"/>
</filter>
</defs>
</svg>
