<svg width="160" height="100" viewBox="0 0 160 100" fill="none" xmlns="http://www.w3.org/2000/svg">
<rect x="52" y="8.5" width="37" height="3" rx="1.5" fill="#D1D2D3"/>
<rect x="52" y="15.5" width="43" height="3" rx="1.5" fill="#16110E"/>
<rect x="52" y="22.5" width="16" height="2" rx="1" fill="#D1D2D3"/>
<rect x="58" y="35.5" width="9" height="2" rx="1" fill="#D1D2D3"/>
<rect x="58" y="39.5" width="9" height="2" rx="1" fill="#D1D2D3"/>
<rect x="70" y="35.5" width="29" height="2" rx="1" fill="#D1D2D3"/>
<rect x="70" y="39.5" width="21" height="2" rx="1" fill="#D1D2D3"/>
<rect x="52.5" y="31" width="56" height="15" rx="3.5" stroke="#D1D2D3"/>
<rect x="52" y="52.5" width="16" height="2" rx="1" fill="#D1D2D3"/>
<rect x="58" y="65.5" width="9" height="2" rx="1" fill="#D1D2D3"/>
<rect x="58" y="69.5" width="9" height="2" rx="1" fill="#D1D2D3"/>
<rect x="70" y="65.5" width="29" height="2" rx="1" fill="#D1D2D3"/>
<rect x="70" y="69.5" width="21" height="2" rx="1" fill="#D1D2D3"/>
<rect x="52.5" y="61" width="56" height="15" rx="3.5" stroke="#D1D2D3"/>
<rect x="52" y="82.5" width="24" height="3" rx="1.5" fill="#D1D2D3"/>
<rect x="52" y="89.5" width="16" height="2" rx="1" fill="#D1D2D3"/>
<rect x="85" y="82.5" width="24" height="3" rx="1.5" fill="#D1D2D3"/>
<rect x="85" y="89.5" width="16" height="2" rx="1" fill="#D1D2D3"/>
</svg>
