<svg width="160" height="100" viewBox="0 0 160 100" fill="none" xmlns="http://www.w3.org/2000/svg">
<rect x="52" y="7.5" width="37" height="3" rx="1.5" fill="#D1D2D3"/>
<rect x="52" y="14.5" width="16" height="2" rx="1" fill="#D1D2D3"/>
<rect x="58" y="27.5" width="9" height="2" rx="1" fill="#D1D2D3"/>
<rect x="58" y="31.5" width="9" height="2" rx="1" fill="#D1D2D3"/>
<rect x="70" y="27.5" width="29" height="2" rx="1" fill="#D1D2D3"/>
<rect x="70" y="31.5" width="21" height="2" rx="1" fill="#D1D2D3"/>
<rect x="52.5" y="23" width="56" height="15" rx="3.5" stroke="#D1D2D3"/>
<rect x="52" y="44.5" width="16" height="2" rx="1" fill="#D1D2D3"/>
<rect x="58" y="57.5" width="9" height="2" rx="1" fill="#D1D2D3"/>
<rect x="58" y="61.5" width="9" height="2" rx="1" fill="#D1D2D3"/>
<rect x="70" y="57.5" width="29" height="2" rx="1" fill="#D1D2D3"/>
<rect x="70" y="61.5" width="21" height="2" rx="1" fill="#D1D2D3"/>
<rect x="52.5" y="53" width="56" height="15" rx="3.5" stroke="#D1D2D3"/>
<rect x="52" y="74.5" width="24" height="3" rx="1.5" fill="#D1D2D3"/>
<rect x="52" y="81.5" width="16" height="2" rx="1" fill="#D1D2D3"/>
<rect x="85" y="74.5" width="24" height="3" rx="1.5" fill="#D1D2D3"/>
<rect x="85" y="81.5" width="16" height="2" rx="1" fill="#D1D2D3"/>
<rect x="52" y="89.5" width="43" height="3" rx="1.5" fill="#16110E"/>
</svg>
