<svg width="24" height="24" viewBox="0 0 24 24" fill="none" xmlns="http://www.w3.org/2000/svg">
<g id="Shopping cart" clip-path="url(#clip0_7620_1185)">
<g id="Vector">
<path d="M7.73254 15.5158H7.73364L7.73638 15.5156H20.4844C20.7982 15.5156 21.0741 15.3074 21.1604 15.0057L23.9729 5.16192C24.0335 4.9497 23.991 4.72156 23.8583 4.54541C23.7253 4.36926 23.5175 4.26562 23.2969 4.26562H6.11096L5.60833 2.00372C5.53674 1.68201 5.25146 1.45312 4.92187 1.45312H0.703125C0.314758 1.45312 0 1.76788 0 2.15625C0 2.54462 0.314758 2.85937 0.703125 2.85937H4.35791C4.4469 3.26019 6.76318 13.6836 6.89648 14.2833C6.14923 14.6081 5.625 15.3532 5.625 16.2187C5.625 17.3818 6.57128 18.3281 7.73437 18.3281H20.4844C20.8727 18.3281 21.1875 18.0134 21.1875 17.625C21.1875 17.2366 20.8727 16.9219 20.4844 16.9219H7.73437C7.34674 16.9219 7.03125 16.6064 7.03125 16.2187C7.03125 15.8317 7.34564 15.5167 7.73254 15.5158ZM22.3647 5.67187L19.9539 14.1094H8.29833L6.42334 5.67187H22.3647Z" fill="#FEFAFD"/>
<path d="M7.03125 20.4375C7.03125 21.6006 7.97753 22.5469 9.14062 22.5469C10.3037 22.5469 11.25 21.6006 11.25 20.4375C11.25 19.2744 10.3037 18.3281 9.14062 18.3281C7.97753 18.3281 7.03125 19.2744 7.03125 20.4375ZM9.14062 19.7344C9.52825 19.7344 9.84374 20.0499 9.84374 20.4375C9.84374 20.8251 9.52825 21.1406 9.14062 21.1406C8.75298 21.1406 8.43749 20.8251 8.43749 20.4375C8.43749 20.0499 8.75298 19.7344 9.14062 19.7344Z" fill="#FEFAFD"/>
<path d="M16.9687 20.4375C16.9687 21.6006 17.915 22.5469 19.0781 22.5469C20.2412 22.5469 21.1875 21.6006 21.1875 20.4375C21.1875 19.2744 20.2412 18.3281 19.0781 18.3281C17.915 18.3281 16.9687 19.2744 16.9687 20.4375ZM19.0781 19.7344C19.4657 19.7344 19.7812 20.0499 19.7812 20.4375C19.7812 20.8251 19.4657 21.1406 19.0781 21.1406C18.6905 21.1406 18.375 20.8251 18.375 20.4375C18.375 20.0499 18.6905 19.7344 19.0781 19.7344Z" fill="#FEFAFD"/>
</g>
</g>
<defs>
<clipPath id="clip0_7620_1185">
<rect width="24" height="24" fill="white"/>
</clipPath>
</defs>
</svg>
